<svg id="Layer_1" data-name="Layer 1" xmlns="http://www.w3.org/2000/svg" xmlns:xlink="http://www.w3.org/1999/xlink" viewBox="0 0 917.92 395.57"><defs><style>.cls-1{fill:url(#linear-gradient);}.cls-2{fill:#236a99;}.cls-16,.cls-3{fill:#1d1d1b;}.cls-4{fill:#c92228;}.cls-10,.cls-14,.cls-4,.cls-5,.cls-6,.cls-7,.cls-8,.cls-9{stroke:#1d1d1b;}.cls-10,.cls-14,.cls-15,.cls-16,.cls-4,.cls-5,.cls-7,.cls-8,.cls-9{stroke-miterlimit:10;}.cls-10,.cls-14,.cls-4,.cls-6,.cls-7,.cls-8,.cls-9{stroke-width:0.76px;}.cls-5{fill:#22557e;stroke-width:0.38px;}.cls-6{fill:#4e1012;stroke-linejoin:round;}.cls-7{fill:#c72227;}.cls-8{fill:#181918;}.cls-9{fill:#383737;}.cls-10{fill:#121212;}.cls-11{fill:#0c2232;}.cls-12{fill:#235b83;}.cls-13{fill:#111313;}.cls-14,.cls-17{fill:#605f5f;}.cls-15{fill:#009ee2;}.cls-15,.cls-16{stroke:#888;stroke-width:0.2px;}.cls-18{fill:#6e472a;}.cls-19{fill:#7f563e;}.cls-20{fill:#96c23b;}.cls-21{fill:#a9ca4b;}.cls-22{fill:#a9cb56;}.cls-23{fill:#b6d05e;}.cls-24{fill:#296d2c;}</style><linearGradient id="linear-gradient" x1="458.96" y1="31.8" x2="458.96" y2="371.1" gradientUnits="userSpaceOnUse"><stop offset="0.19" stop-color="#c73232" stop-opacity="0"/><stop offset="0.91" stop-color="#fff"/></linearGradient></defs><title>tudelt-ewi</title><rect class="cls-1" width="917.92" height="375.25"/><polygon class="cls-2" points="629.04 378.47 624.23 53.89 901.82 53.89 892.97 378.47 629.04 378.47"/><path class="cls-3" d="M901.43,54.27,892.6,378.09H629.42L624.61,54.27H901.43m.78-.76H623.84v.77l4.81,323.82v.75H893.34l0-.74,8.83-323.82,0-.78Z"/><polygon class="cls-4" points="571.06 378.09 629.42 378.09 624.61 58.49 565.14 58.49 571.06 378.09"/><path class="cls-5" d="M883.47,11.58"/><polygon class="cls-6" points="564.21 31.89 573.19 38.81 573.19 34.54 569.66 31.89 564.21 31.89"/><rect class="cls-7" x="573.19" y="35.35" width="51.42" height="3.46"/><polyline class="cls-8" points="624.61 35.35 624.61 31.89 569.66 31.89 573.15 35.39 624.61 35.39"/><polygon class="cls-9" points="583.36 58.49 583.36 31.75 584.53 31.75 586.74 58.49 583.36 58.49"/><polygon class="cls-10" points="584.53 31.75 588.95 31.75 589.54 58.49 586.74 58.49 584.53 31.75"/><polyline class="cls-7" points="624.61 19.38 624.61 31.89 564.21 31.89 564.21 19.38 624.61 19.38"/><path class="cls-11" d="M890.78,34.14a.41.41,0,0,1-.18,0,.37.37,0,0,1-.2-.33v-4a.4.4,0,0,1,.17-.32l5.84-4a.4.4,0,0,1,.21-.07h6.48a.37.37,0,0,1,.36.27.38.38,0,0,1-.15.43l-12.32,8A.37.37,0,0,1,890.78,34.14Z"/><path class="cls-3" d="M903.1,25.71l-12.32,8v-4l5.84-4h6.48m0-.76h-6.48a.76.76,0,0,0-.43.14l-5.84,4a.78.78,0,0,0-.33.63v4a.78.78,0,0,0,.4.67.8.8,0,0,0,.36.09.79.79,0,0,0,.42-.12l12.32-8a.76.76,0,0,0-.42-1.4Z"/><rect class="cls-12" x="624.23" y="29.36" width="266.3" height="4.78"/><path class="cls-3" d="M890.15,29.74v4H624.61v-4H890.15m.76-.77H623.85v5.55H890.91V29Z"/><polygon class="cls-13" points="624.23 30.12 624.23 25.33 897.96 25.33 890.25 30.12 624.23 30.12"/><path class="cls-3" d="M896.62,25.71l-6.47,4H624.61v-4h272m2.67-.76H623.85V30.5H890.36l.19-.12,6.47-4L899.29,25Z"/><polygon class="cls-10" points="873.76 53.58 877.39 53.58 880.73 25.71 873.76 25.71 873.76 53.58"/><polygon class="cls-9" points="877.39 53.58 881.22 53.58 882.89 25.71 880.73 25.71 877.39 53.58"/><polygon class="cls-14" points="624.61 25.71 624.61 54.27 849.42 53.58 850.5 25.71 624.61 25.71"/><polygon class="cls-2" points="624.23 26.09 624.23 13.16 903.48 12.38 903.48 26.09 624.23 26.09"/><path class="cls-3" d="M903.1,12.76v13H624.61V13.54l278.49-.78m.76-.76h-.76l-278.49.78h-.76V26.47h280V12Z"/><path class="cls-15" d="M782.56,29.4V41.7c0,4.7-3.51,7.5-9.27,7.5s-9.22-2.8-9.26-7.5V29.4h5.2v12a4.06,4.06,0,1,0,8.12,0v-12h5.21"/><path class="cls-16" d="M809.2,40.78v.12h7.17v-.12c0-2.68-1.28-4.16-3.59-4.16s-3.56,2.09-3.58,4.16m-2.46,1.42c0-3.5,1.64-7.23,6.22-7.23,3.64,0,5.9,2.42,5.9,6.33v1.16h-9.72v.12c0,3.16,1.33,5,3.64,5,2.06,0,3.07-.84,3.4-2.77h2.48c-.44,2.8-2.57,4.41-5.91,4.41C807.52,49.2,806.74,44.81,806.74,42.2Z"/><path class="cls-16" d="M824.58,29.4V48.8h-2.36V29.4h2.36"/><path class="cls-16" d="M761.24,29.4V33h-6.09V48.8h-5.21V33h-6.09V29.4h17.39"/><path class="cls-16" d="M749.4,25.56l0-.17c-1-4.55,1.41-8.16,7.16-10.74a24.36,24.36,0,0,1,4-1.25c2.36-.61,4.8-1.23,6.49-2.92l.38-.63c.15,0,.15.34,0,.82-.38,1-1.82,2-3.35,3.09-1.91,1.34-3.89,2.72-3.89,4.28a1.9,1.9,0,0,0,.68,1.63,2.43,2.43,0,0,0,2.16.17,5.77,5.77,0,0,0,1.94-1.17l.12-.11c.08-.07.23-.22.28-.2s0,.18-.06.43c-1.05,3.65-4.87,8.85-9.32,9.14h-.6c0-.05.26-.16.5-.26l.78-.42c1.8-1.39,2.32-2.8,2.7-5.07,0-.26.12-.86-.11-.94s-.34.15-.53.5a3.48,3.48,0,0,1-2.71,1.8,1.3,1.3,0,0,1-1.13-.91c-.34-.83.21-1.63.85-2.56a7.35,7.35,0,0,0,1.28-2.51l.06-.71-.17,0c-.16,0-.37.21-.64.67A9.81,9.81,0,0,1,753.48,20c-1.81,1.36-3.69,2.76-3.66,5.36,0,.46,0,1.24-.11,1.31a4.63,4.63,0,0,1-.31-1.15"/><path class="cls-16" d="M830.21,35.38h.11V32.72c0-2.33,1.55-3.73,4.16-3.73l1.73.26v1.92l-.35,0-.84,0c-1.52,0-2.35.31-2.35,2v2.32h3.16V37h-3.16V48.8h-2.35V37h-2.66V35.38h2.55"/><path class="cls-16" d="M842.23,31.7v3.68h3.16V37h-3.16V45.9a1.58,1.58,0,0,0,1.8,1.55l1.25-.15v1.75l-1.65.15c-3.75,0-3.75-1.67-3.75-3.44V37h-2.34V35.38h2.34v-3l2.35-.74"/><path class="cls-16" d="M794.86,29.4c8.49,0,9.16,7.43,9.16,9.7s-.67,9.7-9.16,9.7h-6.63V29.4h6.63m-4,2.11h-.12V46.69h4.14c4.09,0,6.53-2.84,6.53-7.59s-2.44-7.59-6.53-7.59Z"/><path class="cls-15" d="M773.29,45.51a3.73,3.73,0,0,0,4-4.08V29.29h5.44V41.7c-.06,5.47-4.44,7.62-9.39,7.62s-9.32-2.15-9.38-7.62V29.29h5.44V41.43a3.73,3.73,0,0,0,3.94,4.08"/><path class="cls-16" d="M809.32,40.78c0-2.13,1.31-4.05,3.46-4.05,2.5,0,3.47,1.71,3.47,4.05h-6.93m9.65,1.8V41.3c0-3.78-2.14-6.45-6-6.45-4.32,0-6.33,3.35-6.33,7.35s1.74,7.12,6.12,7.12c3.26,0,5.65-1.55,6.06-4.65h-2.72c-.3,2-1.3,2.77-3.31,2.77-2.64,0-3.52-2.34-3.52-4.86Z"/><rect class="cls-16" x="822.11" y="29.29" width="2.59" height="19.63"/><polyline class="cls-16" points="749.83 48.91 755.26 48.91 755.26 33.09 761.35 33.09 761.35 29.29 743.73 29.29 743.73 33.09 749.83 33.09 749.83 48.91"/><path class="cls-16" d="M762.89,19.73c-1.33.42-2.7.08-2.69-1.69,0-2.7,6.35-5,7.23-7.33.22-.59.23-1.08,0-1.06s0,.3-.49.75c-2.63,2.63-7,2.63-10.42,4.14-2.22,1-8.72,4.05-7.22,10.88.07.32.26,1.4.46,1.4s.23-.64.22-1.42c0-4.07,4.76-5.2,6.33-7.85.19-.32.51-.76.59-.56a1.22,1.22,0,0,1-.05.53c-.49,2.18-2.77,3.58-2.13,5.14.84,2,3.26.52,4-.78.2-.36.31-.59.44-.55s.1.45,0,.82c-.4,2.35-.94,3.67-2.66,5-.55.43-1.41.52-1.3.85,0,.08.41.07.7,0,4.58-.29,8.4-5.68,9.41-9.21.11-.24.14-.48,0-.56s-.34.13-.54.31a5.9,5.9,0,0,1-1.9,1.15"/><path class="cls-16" d="M832.79,48.91V37.06h3.15V35.27h-3.15V33.06c0-1.57.76-1.84,2.23-1.84.43,0,.87.05,1.3.08V29.15a8.18,8.18,0,0,0-1.84-.27c-2.45,0-4.27,1.22-4.27,3.84v2.55h-2.67v1.79h2.67V48.91h2.58"/><path class="cls-16" d="M837.43,35.27v1.79h2.34v8.7c0,1.82,0,3.56,3.86,3.56a10.69,10.69,0,0,0,1.77-.16v-2a6.58,6.58,0,0,1-1.37.17c-.92,0-1.68-.47-1.68-1.44V37.06h3.15V35.27h-3.15V31.54l-2.58.82v2.91h-2.34"/><path class="cls-16" d="M788.11,48.91h6.75c8.39,0,9.27-7.1,9.27-9.81s-.88-9.81-9.27-9.81h-6.75V48.91m2.73-17.29h4c4.53,0,6.42,3.43,6.42,7.48s-1.89,7.48-6.42,7.48h-4Z"/><rect class="cls-17" y="375.25" width="917.92" height="20.32"/><path class="cls-18" d="M496,378.09s6-.9,6.45-5.7,1.05-20.84-1.2-23.09-7.8-5.4-8.1-6.15-3.15-8.7-3.15-8.7h1.2s4.18,7.5,5.24,8.25,6.46,3.6,7.51,3.3-2.7-7.5-2.7-7.5v-8.4h1.05s0,7.8.75,8.55,3.75,7,5.25,6.2,11.55-12.5,11.55-12.5l1.2,1s-9.3,10.76-9,11.45,11.85,1,11.85,1l9-6.75.6,1s-8.25,7.5-9.3,7.8-11.1.9-11.4,1.65-.07,20.82.22,22.55c.55,3.24,6.38,5.94,6.38,5.94A92.14,92.14,0,0,0,496,378.09Z"/><path class="cls-19" d="M502.73,349.23s1.53,2.75,1.53,9.25.13,16.7-2.39,18a49.74,49.74,0,0,1,6.69-.67L506.94,347S504.2,349.17,502.73,349.23Z"/><path class="cls-20" d="M470.29,334.9s2.77,7.65,11.17,5.85,10-6.7,10-6.7,4.19,4.35,11.76,2.41,9.5-7.25,9.5-7.25a9.91,9.91,0,0,0,5.93,9.44c6.47,3,10.82,1.2,10.82,1.2s-.8,5.6,7.73,7.47,15.34-7.15,13.89-15a15.71,15.71,0,0,0-7.76-11,12.09,12.09,0,0,0-9.19-20.78s3.42-7.49-2.25-13.53c-5.89-6.28-12.73-4.12-14.82-3.64,0,0-3.17-9.58-14.91-7.15-10.35,2.14-11.51,11.5-9.57,15.85,0,0-11.32-.8-14.66,7.83-4.27,11,4,17.07,4,17.07S465,319.3,470.29,334.9Z"/><path class="cls-21" d="M496.52,283.62c.56-1.75,5-4.49,9.65-4.49s8.8,5.64,9.18,6.88c0,0,5.26-1.44,9.85,0s7.84,9.18,7.27,12.91-4.88,3.34-4.69,0-1.62-8-5.16-9.37-7.55.86-9.47-2.11-5.64-5-8.79-4.3S495.66,286.3,496.52,283.62Z"/><path class="cls-22" d="M527.93,340.29a6.71,6.71,0,0,1-7.88,4.13c-5.86-1.25-7.06-4.73-7.06-4.73s-3,3.07-8.31,1.7-6.71-5.11-6.71-5.11a7,7,0,0,1-4.19,6.66c-4.57,2.09-7.64.84-7.64.84s.57,4-5.46,5.28-10.83-5.05-9.81-10.62a11.11,11.11,0,0,1,5.49-7.74A8.53,8.53,0,0,1,482.84,316s-2.41-5.29,1.59-9.56c4.16-4.43,9-2.91,10.47-2.57,0,0,2.24-6.77,10.53-5,7.31,1.51,8.13,8.12,6.76,11.2,0,0,8-.57,10.35,5.52,3,7.77-2.84,12.06-2.84,12.06S531.7,329.27,527.93,340.29Z"/><path class="cls-23" d="M509.41,304.08c-.39-1.24-3.51-3.18-6.82-3.18s-6.21,4-6.48,4.86a14.23,14.23,0,0,0-6.95,0c-3.24,1-5.54,6.48-5.13,9.12s3.44,2.36,3.31,0,1.14-5.67,3.64-6.62,5.33.61,6.69-1.48,4-3.51,6.21-3S510,306,509.41,304.08Z"/><path class="cls-18" d="M81,377.27s3.36-.5,3.62-3.19.58-11.7-.68-13-4.37-3-4.54-3.45-1.77-4.88-1.77-4.88h.68s2.34,4.21,2.93,4.63,3.63,2,4.22,1.85S84,355.06,84,355.06v-4.71h.59s0,4.38.42,4.8,2.11,3.93,3,3.48,6.47-7,6.47-7l.68.59s-5.22,6-5,6.43,6.65.55,6.65.55l5-3.78.34.59s-4.63,4.2-5.22,4.37-6.22.51-6.39.93,0,11.68.13,12.65c.3,1.82,3.57,3.33,3.57,3.33A52,52,0,0,0,81,377.27Z"/><path class="cls-19" d="M84.81,361.08s.86,1.54.86,5.19.07,9.37-1.34,10.08a27.48,27.48,0,0,1,3.75-.37l-.91-16.14A6.46,6.46,0,0,1,84.81,361.08Z"/><path class="cls-20" d="M66.61,353a5.35,5.35,0,0,0,6.27,3.28c4.65-1,5.6-3.75,5.6-3.75a6.88,6.88,0,0,0,6.6,1.35c4.25-1.08,5.33-4.06,5.33-4.06a5.56,5.56,0,0,0,3.33,5.29c3.63,1.66,6.07.67,6.07.67s-.45,3.14,4.33,4.19,8.61-4,7.79-8.44a8.78,8.78,0,0,0-4.35-6.14,6.78,6.78,0,0,0-5.15-11.66,7.2,7.2,0,0,0-1.27-7.59,7.84,7.84,0,0,0-8.31-2s-1.78-5.37-8.37-4c-5.8,1.2-6.45,6.45-5.36,8.89,0,0-6.35-.45-8.23,4.39A8.1,8.1,0,0,0,73.15,343S63.62,344.29,66.61,353Z"/><path class="cls-21" d="M81.32,324.28c.32-1,2.79-2.52,5.42-2.52s4.93,3.16,5.15,3.86a11.34,11.34,0,0,1,5.52,0c2.58.8,4.4,5.15,4.08,7.24s-2.74,1.88-2.63,0-.91-4.5-2.9-5.26-4.23.49-5.31-1.18A5.1,5.1,0,0,0,85.72,324C84,324.39,80.84,325.78,81.32,324.28Z"/><path class="cls-22" d="M98.94,356.07a3.75,3.75,0,0,1-4.42,2.31c-3.28-.7-4-2.65-4-2.65a4.88,4.88,0,0,1-4.66,1,5.25,5.25,0,0,1-3.76-2.87,3.92,3.92,0,0,1-2.35,3.73,5.73,5.73,0,0,1-4.29.48s.32,2.21-3.06,3-6.08-2.84-5.5-6A6.2,6.2,0,0,1,70,350.69a4.78,4.78,0,0,1,3.64-8.23,5.09,5.09,0,0,1,.89-5.36,5.55,5.55,0,0,1,5.87-1.45s1.26-3.79,5.91-2.83a4.67,4.67,0,0,1,3.79,6.28s4.49-.32,5.81,3.1a5.72,5.72,0,0,1-1.6,6.77S101.06,349.89,98.94,356.07Z"/><path class="cls-23" d="M88.56,335.75c-.23-.69-2-1.78-3.83-1.78s-3.48,2.24-3.64,2.73a7.94,7.94,0,0,0-3.9,0c-1.81.57-3.1,3.64-2.87,5.11s1.93,1.33,1.85,0,.65-3.18,2-3.71,3,.34,3.75-.83a3.59,3.59,0,0,1,3.48-1.71C86.7,335.83,88.9,336.81,88.56,335.75Z"/><path class="cls-18" d="M73.6,381.23s-6-.9-6.45-5.7-1.05-20.84,1.21-23.09,7.79-5.4,8.09-6.15,3.15-8.7,3.15-8.7H78.4s-4.17,7.5-5.23,8.25-6.46,3.6-7.51,3.3,2.7-7.5,2.7-7.5v-8.4H67.3s0,7.8-.75,8.55-3.75,7-5.24,6.2-11.55-12.5-11.55-12.5l-1.2,1.05s9.3,10.76,9,11.45-11.85,1-11.85,1l-9-6.75-.6,1.05s8.25,7.5,9.3,7.8,11.1.9,11.39,1.65.08,20.82-.22,22.55c-.55,3.24-6.37,5.94-6.37,5.94A92.08,92.08,0,0,1,73.6,381.23Z"/><path class="cls-19" d="M66.88,352.37s-1.53,2.75-1.53,9.25-.12,16.7,2.39,18a49.74,49.74,0,0,0-6.69-.67l1.63-28.78S65.41,352.31,66.88,352.37Z"/><path class="cls-20" d="M99.32,338s-2.77,7.65-11.17,5.85-10-6.7-10-6.7S74,341.54,66.4,339.6s-9.51-7.25-9.51-7.25A9.89,9.89,0,0,1,51,341.79c-6.48,3-10.83,1.2-10.83,1.2s.81,5.6-7.73,7.47-15.34-7.15-13.89-15a15.7,15.7,0,0,1,7.77-11,12.09,12.09,0,0,1,9.18-20.78s-3.41-7.49,2.26-13.53c5.89-6.28,12.72-4.12,14.82-3.64,0,0,3.16-9.58,14.91-7.15C77.8,281.49,79,290.86,77,295.21c0,0,11.31-.8,14.66,7.83,4.26,11-4,17.07-4,17.07S104.65,322.44,99.32,338Z"/><path class="cls-21" d="M73.1,286.76c-.56-1.75-5-4.49-9.66-4.49s-8.8,5.64-9.18,6.88c0,0-5.26-1.44-9.85,0s-7.84,9.18-7.26,12.91,4.87,3.34,4.68,0,1.63-8,5.17-9.37,7.55.86,9.46-2.11,5.64-5,8.8-4.3S74,289.44,73.1,286.76Z"/><path class="cls-22" d="M41.68,343.43a6.73,6.73,0,0,0,7.89,4.13c5.85-1.25,7.06-4.73,7.06-4.73s3,3.07,8.3,1.7,6.71-5.12,6.71-5.12a7,7,0,0,0,4.19,6.67c4.57,2.09,7.64.84,7.64.84s-.56,4,5.46,5.28,10.84-5.05,9.81-10.62a11.08,11.08,0,0,0-5.48-7.74,8.53,8.53,0,0,0-6.49-14.67s2.41-5.29-1.59-9.56c-4.16-4.43-9-2.91-10.46-2.57,0,0-2.24-6.77-10.54-5.05-7.3,1.51-8.12,8.12-6.76,11.19,0,0-8-.56-10.35,5.53-3,7.77,2.85,12.06,2.85,12.06S37.92,332.41,41.68,343.43Z"/><path class="cls-23" d="M60.2,307.21C60.6,306,63.71,304,67,304s6.21,4,6.48,4.86a14.28,14.28,0,0,1,7,0c3.24,1,5.53,6.48,5.13,9.12s-3.45,2.36-3.31,0-1.15-5.67-3.65-6.62S73.3,312,72,309.92s-4-3.52-6.21-3S59.59,309.1,60.2,307.21Z"/><path class="cls-24" d="M30.67,375.25s0,4.83,17,10.16,115.35,3.19,136.26,0,99.87-14.54,139.35-7.32S514.92,388.65,532.53,382s10.65-6.7,10.65-6.7Z"/></svg>